<svg width="28" height="32" fill="none" xmlns="http://www.w3.org/2000/svg"><path d="M27.885 7.814 14.575.142c-.35-.19-.78-.19-1.13 0L.188 7.814a.284.284 0 0 0-.134.243v1.648c0 .108.054.19.134.243L22.83 23.105l-2.689 1.567L.457 13.244c-.08-.054-.188-.054-.296 0a.284.284 0 0 0-.134.244v3.35c0 .107.054.189.134.243l16.511 9.563-2.689 1.567L.43 20.35c-.134-.082-.322-.027-.403.108-.027.054-.027.08-.027.135v3.35c0 .108.054.189.161.243l13.257 7.672c.35.19.78.19 1.13 0l13.284-7.672a.284.284 0 0 0 .134-.243v-1.675a.284.284 0 0 0-.134-.244L5.163 8.868l2.743-1.594 19.63 11.4c.134.082.323.028.403-.107.027-.055.027-.082.027-.136v-3.35a.284.284 0 0 0-.134-.243l-16.43-9.536 2.608-1.513 13.553 7.861c.134.082.322.027.403-.108.027-.054.027-.08.027-.135v-3.35c.027-.108-.027-.189-.108-.243Z" fill="#fff"/></svg>