<svg height="256" fill="none" viewBox="0 0 256 256" width="256" xmlns="http://www.w3.org/2000/svg" xmlns:xlink="http://www.w3.org/1999/xlink">
    <style>
        @media (prefers-color-scheme: dark) {
            path { fill: #fff }
        }
    </style>
    <path fill="#000" d="m239.119 62.5096-106.591-61.24493c-2.71-1.625966-6.323-1.625966-9.033 0l-106.411 61.42553c-.7227.3614-1.084 1.084-1.084 1.9873v13.1885c0 .9033.3613 1.6259 1.084 1.9873l181.567 104.9657-21.499 12.465-157.7194-91.235c-.7226-.361-1.626-.361-2.3486 0-.7227.542-1.084 1.265-1.084 1.988v26.738c0 .903.3613 1.626 1.084 1.987l132.426 76.421-21.499 12.466-108.5784-62.691c-.7226-.361-1.626-.361-2.3486 0-.7227.362-1.084 1.084-1.084 1.988v26.738c0 .903.3613 1.626 1.084 1.987l106.411 61.245c1.445.723 2.89 1.265 4.516 1.265s3.072-.362 4.517-1.265l106.591-61.245c.723-.361 1.084-1.084 1.084-1.987v-13.55c0-.903-.361-1.626-1.084-1.987l-181.7471-104.9656 22.0409-12.6464 157.5382 90.874c.723.361 1.626.361 2.349 0 .723-.362 1.084-1.084 1.084-1.988v-26.738c0-.903-.361-1.626-1.084-1.987l-132.246-76.2401 20.957-12.1044 108.76 62.6902c.722.3613 1.626.3613 2.348 0 .723-.3613 1.084-1.084 1.084-1.9873v-26.5575c.181-.7227-.361-1.626-1.084-1.9873z"/>
</svg>