<svg width="145" height="35" fill="none" xmlns="http://www.w3.org/2000/svg"><path d="M30.085 8.547 15.725.155a1.274 1.274 0 0 0-1.22 0L.204 8.547a.312.312 0 0 0-.145.266v1.802c0 .118.058.207.145.266l24.428 14.39-2.901 1.714L.493 14.486c-.087-.059-.203-.059-.319 0a.312.312 0 0 0-.145.266v3.664c0 .118.058.207.145.266l17.813 10.46-2.901 1.714L.464 22.257c-.145-.088-.348-.03-.435.118-.029.06-.029.09-.029.148v3.664c0 .118.058.207.174.266l14.303 8.392c.377.207.841.207 1.218 0l14.332-8.392a.312.312 0 0 0 .145-.266v-1.832a.312.312 0 0 0-.145-.266L5.57 9.7l2.96-1.743 21.178 12.47c.145.088.348.029.435-.119.03-.059.03-.089.03-.148v-3.664a.312.312 0 0 0-.146-.266L12.301 5.8l2.814-1.655 14.622 8.599c.145.088.348.03.435-.119.03-.059.03-.088.03-.147V8.813c.028-.118-.03-.207-.117-.266Zm37.947-1.744h-2.756c-.261-.029-.493.178-.522.444v20.418a.47.47 0 0 0 .406.532h2.872a.464.464 0 0 0 .522-.414V7.365a.47.47 0 0 0-.406-.532c-.058-.03-.087-.03-.116-.03ZM85.497 20.13l1.712-1.744c.232-.265.377-.59.348-.975V9.73c0-.089 0-.177-.029-.266a1.574 1.574 0 0 0-.32-.62l-1.653-1.714a1.29 1.29 0 0 0-.319-.237c-.087-.03-.145-.059-.232-.059h-.058c-.087-.03-.174-.03-.261-.03h-9.458c-.261-.029-.493.178-.522.444v20.418a.49.49 0 0 0 .435.532h2.843c.261.029.493-.178.522-.444V20.395h3.163l2.93 7.3c.058.117.145.236.232.324a.568.568 0 0 0 .406.178h2.843c.174.029.348-.06.435-.207a.508.508 0 0 0 .03-.414l-3.047-7.446Zm-1.77-4.255c0 .059-.029.088-.058.118l-.464.502a.22.22 0 0 1-.145.06h-4.584v-5.88h4.584c.058 0 .087.029.145.058l.493.473c.03.03.03.03.03.06v4.609Zm23.007-7.033L105.08 7.13a1.088 1.088 0 0 0-.435-.266c-.145-.03-.29-.06-.406-.06h-7.717c-.145 0-.32.03-.465.06a.883.883 0 0 0-.377.266l-1.682 1.713c-.145.119-.233.296-.29.473-.03.118-.03.237-.03.355v15.72c0 .118.03.206.03.324.058.178.145.355.29.473l1.682 1.744c.116.147.29.236.464.295.087.03.203.03.32.06h7.543c.406.029.783-.09 1.102-.326l1.654-1.743a.806.806 0 0 0 .261-.355c.087-.177.116-.354.116-.532V9.7c0-.178-.029-.326-.087-.503-.116-.118-.203-.266-.319-.355Zm-3.453 14.981c0 .06-.029.089-.058.119l-.377.384h-4.96l-.378-.384a.225.225 0 0 1-.058-.119v-12.47c0-.058.029-.088.058-.117l.522-.503a.219.219 0 0 1 .116-.059h4.497c.029 0 .087.03.116.06l.493.472c.029.03.029.06.058.089v.059l-.029 12.47Zm18.104-8.54 5.483-7.74c.145-.149.145-.385 0-.562a.757.757 0 0 0-.551-.207h-3.685a.604.604 0 0 0-.377.148 3.128 3.128 0 0 0-.261.325l-5.019 7.505V7.335a.47.47 0 0 0-.406-.532H113.725c-.261-.029-.493.178-.522.444v20.418a.49.49 0 0 0 .435.532h2.844a.464.464 0 0 0 .522-.414V21.489l1.886-2.689 3.887 8.894a.92.92 0 0 0 .261.325c.116.089.261.148.406.178h3.163c.319 0 .435-.178.464-.296a.763.763 0 0 0-.058-.561l-5.628-12.056Zm23.441-6.057a1.125 1.125 0 0 0-.261-.384l-1.683-1.684c-.116-.118-.261-.236-.435-.266-.145-.03-.29-.059-.406-.059h-7.688c-.145 0-.319.03-.464.06a.88.88 0 0 0-.378.265l-1.682 1.714c-.145.118-.232.295-.29.473-.029.118-.029.236-.058.354v15.72c0 .118.029.207.058.325.058.177.145.325.29.473l1.682 1.743c.116.148.291.236.465.296.087.03.203.03.319.059h7.543c.406.03.783-.089 1.102-.325l1.683-1.744c.087-.088.174-.206.261-.325.087-.177.116-.354.116-.532V9.73c-.058-.177-.087-.355-.174-.503Zm-3.685 14.597c0 .06-.029.089-.058.119l-.377.384h-4.99l-.377-.384a.225.225 0 0 1-.058-.119v-12.47c0-.058.029-.088.058-.117l.493-.473a.22.22 0 0 1 .145-.06h4.497s.058 0 .087.06l.493.473.058.059v.059l.029 12.47Zm-82.508-3.87c0-.178-.03-.385-.088-.562a3.123 3.123 0 0 0-.26-.325l-.262-.177-8.993-5.319c-.03-.03-.058-.059-.058-.118v-2.098c0-.089.029-.089.058-.118l.493-.473a.407.407 0 0 1 .174-.06h5.135v2.424c0 .177.145.325.32.325h3.132c.087 0 .174-.03.232-.089a.34.34 0 0 0 .087-.236V9.699a1.76 1.76 0 0 0-.058-.384 1.338 1.338 0 0 0-.319-.502l-1.682-1.714a1.214 1.214 0 0 0-.406-.266 1.146 1.146 0 0 0-.436-.089h-7.688c-.174 0-.377.03-.551.09-.116.058-.203.147-.32.235L45.49 8.783c-.145.118-.232.296-.29.473a1.76 1.76 0 0 0-.058.384v5.348c0 .178.03.385.087.562.087.118.174.236.261.325l9.255 5.496c.029.03.058.059.058.118v2.098c0 .06-.03.089-.058.118l-.493.473a.406.406 0 0 1-.174.059h-5.135v-2.423a.325.325 0 0 0-.32-.325H45.49a.325.325 0 0 0-.319.325v3.487c0 .118.03.266.058.384.058.177.174.355.32.502l1.682 1.714c.116.118.261.207.406.266.145.059.29.089.435.089h7.688c.174 0 .378-.03.552-.09.116-.058.203-.147.319-.235l1.653-1.714c.145-.118.232-.296.29-.473.03-.118.059-.266.059-.414V19.953Z" fill="#fff"/></svg>